<?xml version="1.0" standalone="no"?>
<!DOCTYPE svg PUBLIC "-//W3C//DTD SVG 20010904//EN"
 "http://www.w3.org/TR/2001/REC-SVG-20010904/DTD/svg10.dtd">
<svg version="1.0" xmlns="http://www.w3.org/2000/svg"
 width="640.000000pt" height="640.000000pt" viewBox="0 0 640.000000 640.000000"
 preserveAspectRatio="xMidYMid meet">
<metadata>
Created by potrace 1.14, written by Peter Selinger 2001-2017
</metadata>
<g transform="translate(0.000000,640.000000) scale(0.100000,-0.100000)"
fill="#000000" stroke="none">
<path d="M2929 6040 c-58 -4 -111 -10 -116 -13 -6 -4 -59 -13 -117 -22 -59 -8
-114 -19 -124 -23 -9 -5 -36 -12 -60 -16 -66 -10 -293 -79 -367 -111 -22 -10
-58 -26 -80 -35 -87 -38 -258 -124 -291 -146 -19 -13 -37 -24 -39 -24 -17 0
-299 -194 -335 -230 -3 -3 -30 -26 -60 -51 -67 -57 -330 -321 -343 -346 -6
-10 -26 -36 -46 -58 -40 -46 -85 -109 -147 -205 -23 -36 -52 -81 -65 -100 -31
-48 -179 -340 -179 -353 0 -6 -9 -29 -19 -51 -41 -87 -126 -367 -142 -466 -4
-30 -15 -84 -23 -120 -35 -155 -44 -574 -16 -815 25 -216 122 -592 184 -710 9
-16 16 -36 16 -43 0 -8 7 -26 15 -40 8 -15 37 -74 66 -132 28 -58 64 -124 80
-148 16 -24 29 -46 29 -49 0 -8 63 -104 124 -188 189 -262 445 -511 721 -700
139 -95 404 -234 560 -294 74 -28 118 -42 280 -91 72 -22 240 -56 350 -71 44
-6 109 -15 145 -19 84 -12 403 -12 500 0 178 21 297 39 320 48 14 5 50 13 80
17 30 4 66 13 80 20 14 7 48 18 75 23 56 12 136 38 178 58 16 8 33 14 39 14 6
0 29 9 52 20 23 10 73 32 111 49 70 30 107 48 220 112 260 146 552 384 735
598 30 35 66 76 79 90 37 41 135 183 232 339 44 70 167 322 204 417 117 300
197 724 195 1040 -1 125 -34 440 -59 555 -38 175 -87 350 -111 392 -6 10 -10
23 -10 30 -1 7 -9 31 -20 53 -11 22 -19 44 -20 49 0 5 -9 27 -19 50 -11 23
-31 67 -46 99 -25 55 -51 101 -102 185 -12 21 -29 51 -37 67 -9 17 -34 55 -56
85 -22 30 -56 80 -76 110 -100 150 -443 496 -591 594 -21 14 -63 44 -93 66
-198 144 -542 309 -795 380 -363 103 -678 136 -1066 110z m466 -699 c3 -16 3
-78 0 -138 -5 -81 -11 -116 -26 -139 -10 -17 -19 -42 -19 -55 0 -12 -11 -39
-23 -58 -13 -20 -40 -61 -60 -91 -21 -30 -37 -61 -37 -68 0 -6 -9 -21 -19 -31
-39 -39 -84 -248 -76 -352 l6 -76 -148 -6 c-81 -3 -186 -13 -232 -21 -47 -9
-87 -13 -90 -11 -3 3 0 20 6 38 7 17 17 52 23 77 28 108 93 202 215 309 33 29
71 63 85 75 14 12 32 25 41 28 17 6 163 190 222 278 20 30 40 60 45 65 9 12
47 126 57 173 8 40 21 41 30 3z m1003 -31 c15 -16 32 -30 40 -30 7 0 34 -19
60 -43 26 -24 63 -54 82 -67 40 -27 66 -49 237 -195 134 -116 173 -157 173
-185 0 -10 -9 -21 -19 -25 -17 -5 -51 -82 -51 -116 0 -21 53 -121 67 -126 8
-3 22 -22 33 -43 11 -21 33 -51 49 -68 39 -39 131 -153 131 -163 0 -4 16 -26
35 -49 33 -40 46 -80 25 -80 -17 0 -174 58 -285 105 -60 26 -124 50 -142 55
-17 4 -47 17 -66 29 -19 11 -44 21 -56 21 -13 0 -26 10 -33 24 -14 32 -37 40
-58 21 -27 -24 -42 -18 -100 40 -30 30 -97 95 -147 145 -101 99 -115 130 -69
152 35 15 39 34 10 52 -13 9 -24 22 -24 30 0 7 -12 27 -27 43 -95 105 -164
207 -165 245 -1 20 9 40 32 63 18 18 38 44 44 57 6 13 21 24 32 26 12 2 26 14
32 28 12 25 95 84 120 84 8 0 26 -13 40 -30z m-2388 -90 c32 -16 72 -46 87
-65 15 -19 34 -35 41 -35 8 0 21 -18 29 -40 9 -22 24 -42 33 -45 23 -7 31 -38
16 -63 -6 -11 -21 -37 -34 -58 -12 -22 -38 -59 -57 -84 -19 -25 -40 -55 -47
-67 -6 -13 -15 -23 -20 -23 -5 0 -13 -12 -18 -26 -6 -14 -19 -28 -30 -31 -26
-7 -18 -40 16 -66 13 -10 24 -22 24 -27 0 -5 -68 -76 -151 -159 -127 -127
-156 -151 -181 -151 -16 0 -41 -9 -55 -20 -14 -11 -34 -20 -44 -20 -10 0 -21
-4 -24 -10 -3 -5 -17 -10 -29 -10 -13 0 -61 -18 -108 -39 -46 -21 -104 -45
-129 -52 -24 -7 -53 -19 -64 -26 -11 -7 -28 -13 -38 -13 -11 0 -53 -16 -94
-36 -51 -25 -78 -33 -85 -26 -14 14 -1 50 23 62 10 6 19 19 19 29 0 9 12 28
26 42 14 13 43 49 63 79 21 30 54 71 74 92 21 20 37 43 37 51 0 9 11 24 24 35
14 10 39 43 56 73 31 52 32 55 20 106 -6 29 -22 66 -36 82 -13 16 -24 35 -24
43 0 15 126 137 204 198 25 19 59 46 75 60 16 14 74 60 128 103 54 43 123 98
153 122 30 25 56 45 58 45 1 0 29 -13 62 -30z m1270 -747 c0 -14 7 -35 17 -45
9 -10 19 -38 23 -63 7 -44 6 -45 -20 -45 -20 0 -29 6 -34 23 -10 37 -7 157 4
157 6 0 10 -12 10 -27z m117 -59 c2 -22 16 -52 33 -72 16 -20 28 -37 26 -39
-1 -2 -16 0 -33 3 -48 10 -78 87 -52 136 14 25 21 17 26 -28z m593 -1 c0 -5
-4 -14 -9 -22 -11 -17 -32 -5 -24 14 5 15 33 21 33 8z m-472 -41 c2 -18 -1
-32 -6 -32 -12 0 -22 24 -22 52 0 32 25 15 28 -20z m-1013 -52 c9 -15 -5 -71
-16 -64 -12 7 -12 74 0 74 6 0 13 -5 16 -10z m1413 -7 c-5 -26 -38 -29 -38 -4
0 15 6 21 21 21 14 0 19 -5 17 -17z m-358 -23 c0 -5 -6 -10 -14 -10 -8 0 -18
5 -21 10 -3 6 3 10 14 10 12 0 21 -4 21 -10z m-1159 -21 c16 -31 -4 -47 -24
-18 -16 22 -14 39 3 39 5 0 14 -9 21 -21z m1196 5 c-3 -3 -12 -4 -19 -1 -8 3
-5 6 6 6 11 1 17 -2 13 -5z m83 -18 c0 -9 -8 -12 -25 -8 -28 5 -24 22 6 22 10
0 19 -6 19 -14z m139 -53 c1 -6 -7 -9 -19 -6 -23 6 -24 7 -8 36 11 21 11 21
19 2 4 -11 8 -25 8 -32z m451 -258 c0 -8 -7 -15 -15 -15 -16 0 -20 12 -8 23
11 12 23 8 23 -8z m-62 -43 c2 -7 -8 -16 -22 -22 -37 -14 -33 -48 7 -63 17 -6
17 -8 3 -23 -23 -23 -20 -34 14 -40 25 -6 30 -11 31 -38 1 -17 1 -34 0 -38 0
-5 6 -8 14 -8 17 0 21 -26 4 -32 -6 -2 -1 -14 10 -27 23 -27 27 -47 10 -53
-15 -5 -4 -39 22 -69 19 -22 19 -24 3 -36 -10 -7 -28 -13 -41 -13 -13 0 -23
-6 -23 -14 0 -16 30 -26 78 -26 25 0 32 -4 32 -20 0 -16 -7 -20 -30 -20 -16 0
-30 -4 -30 -10 0 -12 66 -30 113 -30 20 0 37 -4 37 -9 0 -11 -113 -20 -342
-27 -146 -4 -193 -2 -213 8 l-26 14 51 44 c27 24 50 50 50 57 0 7 14 25 30 40
17 14 30 32 30 39 0 7 16 34 36 59 24 32 38 64 44 100 5 29 14 71 20 95 6 23
11 56 10 74 -3 50 -1 56 25 82 26 26 45 28 53 6z m-877 -41 c175 -39 378 -133
457 -212 38 -39 61 -113 38 -123 -6 -3 -2 -4 9 -4 11 1 32 0 47 0 l28 -2 -36
-47 c-20 -26 -58 -63 -85 -81 l-49 -35 -132 26 c-152 30 -142 28 -463 62 -281
30 -362 45 -420 79 -66 39 -102 108 -71 138 8 9 12 18 9 21 -10 10 37 75 77
107 120 95 355 123 591 71z m-1271 4 c0 -8 -4 -15 -10 -15 -5 0 -10 7 -10 15
0 8 5 15 10 15 6 0 10 -7 10 -15z m74 -72 c-9 -39 -15 -47 -24 -33 -11 17 1
60 16 60 11 0 13 -7 8 -27z m-24 -163 c0 -34 -5 -52 -14 -56 -24 -9 -26 -43
-4 -59 15 -9 24 -32 30 -72 5 -31 20 -84 34 -118 39 -93 39 -93 10 -101 -42
-10 -132 5 -160 27 -33 26 -33 49 0 78 20 18 24 25 13 31 -10 7 -7 18 15 50
30 45 28 65 -8 99 -21 20 -23 27 -14 52 5 16 14 30 19 30 5 1 15 2 22 3 6 0
19 20 27 44 8 23 18 42 22 42 4 0 8 -23 8 -50z m-230 -439 c0 -12 -21 -19 -37
-13 -22 8 -14 22 12 22 14 0 25 -4 25 -9z m64 -6 c-4 -8 -10 -15 -15 -15 -5 0
-9 7 -9 15 0 8 7 15 15 15 9 0 12 -6 9 -15z m2572 5 l74 0 0 -143 0 -144 -52
-33 c-29 -19 -55 -38 -56 -42 -2 -5 -18 -15 -35 -24 -44 -20 -74 -38 -94 -56
-10 -8 -46 -31 -79 -51 l-62 -35 -6 102 c-4 55 -14 125 -22 154 -23 84 -79
194 -113 226 -17 17 -31 33 -31 38 0 7 357 17 388 11 8 -2 47 -3 88 -3z
m-2367 -84 c9 -11 12 -83 10 -258 -1 -134 0 -247 1 -253 10 -43 -14 -45 -81
-7 -32 17 -52 36 -56 52 -10 36 -10 378 0 423 5 25 16 41 30 47 34 14 83 11
96 -4z m-463 -28 c6 -4 28 -3 49 3 39 11 116 4 148 -12 25 -14 21 -37 -13 -67
-37 -33 -38 -44 -2 -40 26 3 27 2 28 -52 0 -30 -4 -61 -9 -68 -5 -7 -11 -40
-12 -75 -1 -34 -7 -73 -14 -85 -14 -25 -43 -29 -61 -7 -7 9 -29 15 -52 15 -25
0 -50 8 -65 20 -14 11 -36 20 -49 20 -21 0 -101 37 -128 59 -6 5 -24 13 -39
16 -15 4 -33 15 -40 25 -6 9 -31 29 -54 43 -23 14 -59 47 -80 73 -21 26 -51
60 -67 75 -43 41 -30 57 46 62 109 7 403 3 414 -5z m700 -27 c116 -74 280
-112 659 -151 473 -49 574 -79 609 -184 12 -34 11 -43 -6 -78 -10 -21 -41 -62
-68 -90 l-49 -50 -228 6 c-663 20 -675 20 -733 52 -105 57 -179 145 -180 212
0 17 -9 27 -30 35 -24 9 -30 18 -31 42 -4 162 -3 235 3 235 4 0 28 -13 54 -29z
m2128 -346 c-4 -8 -10 -15 -15 -15 -5 0 -9 7 -9 15 0 8 7 15 15 15 9 0 12 -6
9 -15z m-2409 -225 c3 -6 -1 -13 -10 -16 -19 -8 -30 0 -20 15 8 14 22 14 30 1z
m2095 -35 c16 -19 3 -40 -16 -24 -15 13 -19 39 -5 39 5 0 14 -7 21 -15z
m-1770 -386 c-11 -20 -22 -24 -33 -12 -9 9 23 44 34 37 5 -3 4 -14 -1 -25z
m1420 -7 c0 -13 -3 -12 -20 3 -11 10 -17 22 -14 27 8 12 34 -11 34 -30z
m-1237 -21 c17 -6 17 -8 4 -19 -8 -7 -28 -38 -43 -68 -15 -31 -36 -60 -46 -65
-10 -5 -18 -17 -18 -25 0 -9 -16 -34 -35 -57 -39 -46 -41 -54 -20 -83 14 -21
16 -21 610 -18 519 4 599 2 619 -11 22 -15 23 -14 40 23 17 37 17 40 -2 73
-11 19 -25 52 -32 73 -7 22 -21 53 -30 70 -10 17 -21 46 -25 64 -5 26 -4 32
11 32 29 0 54 -31 54 -65 0 -18 6 -38 14 -44 16 -14 61 -130 57 -150 -1 -7 7
-24 19 -36 15 -16 20 -30 15 -44 -5 -18 1 -24 37 -41 24 -10 51 -26 62 -34 26
-21 46 -140 46 -276 -1 -124 -13 -132 -25 -15 -19 190 -56 277 -122 290 -49 9
-218 13 -861 19 -287 3 -534 9 -547 12 -34 8 -32 33 9 86 19 25 38 58 42 74 3
16 19 45 35 65 15 20 31 48 34 62 4 15 13 31 21 38 8 6 14 18 14 26 0 22 19
53 33 52 7 0 20 -4 30 -8z m419 -67 c172 -5 235 -10 232 -19 -5 -12 -118 -62
-199 -88 -76 -25 -219 -47 -301 -47 -67 0 -75 2 -90 25 -13 20 -14 30 -4 62
21 63 51 87 100 78 14 -3 131 -8 262 -11z m-701 -344 c-27 -23 -51 -26 -51 -7
0 21 11 27 44 27 l31 -1 -24 -19z m-102 -111 c-62 -125 -76 -181 -73 -282 3
-89 -7 -111 -27 -59 -13 34 -2 196 16 232 7 14 15 45 18 69 4 33 15 53 43 82
60 62 67 48 23 -42z m871 17 c96 -8 213 -21 260 -30 47 -8 102 -18 123 -21 23
-4 37 -11 37 -20 0 -13 -26 -15 -152 -16 -315 -1 -706 -52 -803 -106 -16 -9
-52 -34 -78 -56 -74 -62 -167 -63 -241 -3 -30 23 -30 24 -17 67 14 46 52 88
129 141 42 29 55 32 156 40 61 5 116 10 121 12 23 10 302 4 465 -8z m836 -374
c-15 -15 -16 -15 -16 2 0 9 6 27 12 39 l13 22 3 -24 c2 -13 -3 -31 -12 -39z
m-1653 -7 c-3 -13 -30 -18 -51 -10 -14 5 -14 7 -2 16 19 11 56 8 53 -6z m233
0 c18 -13 16 -14 -23 -15 -46 0 -67 16 -31 23 13 2 26 5 29 6 3 0 14 -6 25
-14z m-111 -5 c-3 -5 -20 -10 -36 -10 -18 0 -28 4 -24 10 3 6 20 10 36 10 18
0 28 -4 24 -10z m1125 0 c-9 -6 -144 -10 -330 -10 -186 0 -321 4 -330 10 -10
6 104 10 330 10 226 0 340 -4 330 -10z m183 3 c-7 -2 -19 -2 -25 0 -7 3 -2 5
12 5 14 0 19 -2 13 -5z"/>
<path d="M3257 4973 c-4 -3 -7 -17 -7 -30 0 -33 24 -24 28 10 3 26 -7 35 -21
20z"/>
<path d="M2971 4573 c-11 -39 -6 -57 9 -33 10 15 14 70 5 70 -2 0 -9 -17 -14
-37z"/>
<path d="M4603 5048 c2 -7 10 -13 17 -13 7 0 15 6 18 13 2 7 -5 12 -18 12 -13
0 -20 -5 -17 -12z"/>
<path d="M4696 4981 c-4 -5 -2 -12 3 -15 5 -4 12 -2 15 3 4 5 2 12 -3 15 -5 4
-12 2 -15 -3z"/>
<path d="M4380 4697 c0 -7 8 -20 18 -28 9 -9 22 -24 28 -34 7 -12 13 -15 17
-8 4 6 -4 22 -18 34 -13 13 -25 30 -25 37 0 6 -4 12 -10 12 -5 0 -10 -6 -10
-13z"/>
<path d="M4905 4420 c3 -5 13 -10 21 -10 8 0 14 5 14 10 0 6 -9 10 -21 10 -11
0 -17 -4 -14 -10z"/>
<path d="M1920 4619 c0 -11 5 -17 10 -14 6 3 10 13 10 21 0 8 -4 14 -10 14 -5
0 -10 -9 -10 -21z"/>
<path d="M1808 4505 c-2 -19 0 -35 4 -35 4 0 8 9 8 19 0 11 3 26 6 35 3 9 2
16 -4 16 -5 0 -12 -16 -14 -35z"/>
<path d="M1765 4430 c-3 -5 -2 -10 4 -10 5 0 13 5 16 10 3 6 2 10 -4 10 -5 0
-13 -4 -16 -10z"/>
<path d="M1712 4389 c2 -6 8 -10 13 -10 5 0 11 4 13 10 2 6 -4 11 -13 11 -9 0
-15 -5 -13 -11z"/>
<path d="M1393 4258 c2 -7 10 -13 17 -13 7 0 15 6 18 13 2 7 -5 12 -18 12 -13
0 -20 -5 -17 -12z"/>
<path d="M4140 3545 c0 -8 5 -15 10 -15 6 0 10 7 10 15 0 8 -4 15 -10 15 -5 0
-10 -7 -10 -15z"/>
<path d="M3022 3750 c0 -14 2 -19 5 -12 2 6 2 18 0 25 -3 6 -5 1 -5 -13z"/>
<path d="M2708 3721 c-10 -10 -18 -21 -18 -24 0 -9 34 5 42 17 20 29 2 34 -24
7z"/>
<path d="M3060 3661 c0 -11 5 -23 10 -26 6 -4 10 5 10 19 0 14 -4 26 -10 26
-5 0 -10 -9 -10 -19z"/>
<path d="M2066 3341 c-3 -5 1 -12 10 -15 27 -10 44 -7 44 9 0 16 -45 21 -54 6z"/>
<path d="M4150 3110 c-12 -8 -11 -10 7 -10 12 0 25 5 28 10 8 13 -15 13 -35 0z"/>
<path d="M4413 3098 c2 -7 10 -13 17 -13 7 0 15 6 18 13 2 7 -5 12 -18 12 -13
0 -20 -5 -17 -12z"/>
<path d="M4377 2903 c-12 -11 -8 -23 8 -23 8 0 15 7 15 15 0 16 -12 20 -23 8z"/>
<path d="M4261 2781 c-8 -6 -9 -11 -3 -15 6 -3 14 -1 17 5 9 14 2 20 -14 10z"/>
<path d="M1570 2850 c-34 -7 -34 -7 13 -9 30 0 46 3 42 9 -3 6 -9 9 -13 9 -4
-1 -23 -5 -42 -9z"/>
<path d="M2875 2811 c-7 -12 12 -24 25 -16 11 7 4 25 -10 25 -5 0 -11 -4 -15
-9z"/>
<path d="M3527 2753 c-4 -3 -7 -11 -7 -17 0 -6 5 -5 12 2 6 6 9 14 7 17 -3 3
-9 2 -12 -2z"/>
<path d="M2925 2700 c3 -5 8 -10 11 -10 2 0 4 5 4 10 0 6 -5 10 -11 10 -5 0
-7 -4 -4 -10z"/>
</g>
</svg>
